<?xml version="1.0" encoding="utf-8"?>
<!-- Generator: Adobe Illustrator 22.0.1, SVG Export Plug-In . SVG Version: 6.00 Build 0)  -->
<svg version="1.1" id="Layer_1" xmlns="http://www.w3.org/2000/svg" xmlns:xlink="http://www.w3.org/1999/xlink" x="0px" y="0px"
	 width="26px" height="26px" viewBox="0 0 26 26" enable-background="new 0 0 26 26" xml:space="preserve">
<g opacity="0.7">
	<path fill="#FFFFFF" d="M4.5,21.4c-2.4-2.3-3.5-5.2-3.5-8.5s1.2-6.1,3.5-8.5S9.7,1,13,1c3.3,0,6.1,1.2,8.5,3.5S25,9.7,25,13
		s-1.2,6.1-3.5,8.4s-5.2,3.5-8.5,3.5C9.7,24.9,6.8,23.8,4.5,21.4z"/>
</g>
<g opacity="0.6">
	<path fill="none" stroke="#0C2B57" stroke-width="1.1744" stroke-miterlimit="10" d="M4.5,21.4c-2.4-2.3-3.5-5.2-3.5-8.5
		s1.2-6.1,3.5-8.5S9.7,1,13,1c3.3,0,6.1,1.2,8.5,3.5S25,9.7,25,13s-1.2,6.1-3.5,8.4s-5.2,3.5-8.5,3.5C9.7,24.9,6.8,23.8,4.5,21.4z"
		/>
</g>
<polygon fill="#0C2B57" points="8.7,13.3 13.8,7.7 14.9,8.9 10.9,13.3 14.9,17.7 13.8,18.8 "/>
<path fill="none" stroke="#AB549B" stroke-miterlimit="10" d="M13,1"/>
</svg>
