<?xml version="1.0" encoding="utf-8"?>
<!-- Generator: Adobe Illustrator 22.0.1, SVG Export Plug-In . SVG Version: 6.00 Build 0)  -->
<svg version="1.1" id="Layer_1" xmlns="http://www.w3.org/2000/svg" xmlns:xlink="http://www.w3.org/1999/xlink" x="0px" y="0px"
	 width="26px" height="26px" viewBox="0 0 26 26" enable-background="new 0 0 26 26" xml:space="preserve">
<g opacity="0.7">
	<path fill="#FFFFFF" d="M21.5,4.5C23.8,6.8,25,9.6,25,13s-1.2,6.1-3.5,8.5s-5.2,3.5-8.5,3.5c-3.3,0-6.1-1.2-8.5-3.5
		S0.9,16.2,0.9,13s1.2-6.1,3.5-8.4S9.7,1,13,1C16.3,1,19.1,2.2,21.5,4.5z"/>
</g>
<g opacity="0.6">
	<path fill="none" stroke="#0C2B57" stroke-width="1.1744" stroke-miterlimit="10" d="M21.5,4.5C23.8,6.8,25,9.6,25,13
		s-1.2,6.1-3.5,8.5s-5.2,3.5-8.5,3.5c-3.3,0-6.1-1.2-8.5-3.5S0.9,16.2,0.9,13s1.2-6.1,3.5-8.4S9.7,1,13,1C16.3,1,19.1,2.2,21.5,4.5z
		"/>
</g>
<polygon fill="#0C2B57" points="17.3,12.7 12.2,18.2 11.1,17.1 15,12.7 11.1,8.2 12.2,7.2 "/>
<path fill="none" stroke="#AB549B" stroke-miterlimit="10" d="M13,24.9"/>
</svg>
