<?xml version="1.0" standalone="no"?>
<!DOCTYPE svg PUBLIC "-//W3C//DTD SVG 20010904//EN"
 "http://www.w3.org/TR/2001/REC-SVG-20010904/DTD/svg10.dtd">
<svg version="1.0" xmlns="http://www.w3.org/2000/svg"
 width="128.000000pt" height="128.000000pt" viewBox="0 0 128.000000 128.000000"
 preserveAspectRatio="xMidYMid meet">

<g transform="translate(0.000000,128.000000) scale(0.100000,-0.100000)"
fill="#000000" stroke="none">
<path d="M283 1200 l5 -40 -104 0 c-154 0 -144 23 -144 -320 0 -267 1 -281 20
-300 18 -18 33 -20 170 -20 l150 0 0 -39 0 -40 -47 -3 -48 -3 0 -55 0 -55 215
0 215 0 0 55 0 55 -47 3 -48 3 0 40 0 39 70 0 69 0 3 -97 3 -98 235 0 235 0 0
375 0 375 -137 3 c-130 2 -138 4 -138 22 0 11 -9 29 -20 40 -17 17 -33 20
-124 20 l-104 0 5 40 c6 46 5 47 -76 25 -30 -7 -66 -25 -80 -39 -18 -18 -38
-26 -61 -26 -23 0 -43 8 -61 26 -14 14 -50 32 -80 39 -81 22 -82 21 -76 -25z
m118 -29 c41 -42 199 -225 199 -231 0 -4 -6 -12 -13 -18 -9 -8 -41 15 -125 90
-106 94 -132 127 -132 164 0 12 7 14 33 9 17 -4 35 -10 38 -14z m265 -13 c-4
-19 -24 -51 -48 -75 l-42 -43 -25 24 -24 24 37 44 c34 39 59 54 95 57 10 1 12
-7 7 -31z m-322 -93 c57 -54 58 -56 41 -75 -13 -14 -22 -17 -35 -10 -23 12
-100 -64 -82 -82 9 -9 2 -22 -30 -56 l-40 -44 41 -41 41 -41 39 38 c30 30 44
36 61 31 30 -10 93 50 86 81 -4 14 1 28 14 39 19 17 21 17 40 0 13 -11 18 -25
14 -39 -7 -31 56 -91 86 -81 17 5 31 -1 61 -31 l39 -38 41 41 41 41 -40 44
c-32 34 -39 47 -30 56 18 18 -59 94 -82 82 -13 -7 -22 -4 -34 9 -17 18 -15 22
41 75 l58 57 100 -3 100 -3 3 -217 2 -218 -420 0 -420 0 0 213 c0 118 3 217 7
220 3 4 50 7 102 7 l96 0 59 -55z m856 -195 l0 -170 -56 0 c-50 0 -59 3 -85
31 -24 26 -35 30 -64 27 l-35 -4 0 143 0 143 120 0 120 0 0 -170z m-748 96
c16 -12 16 -14 -6 -35 -20 -19 -25 -20 -35 -7 -10 11 -9 19 1 35 15 24 17 25
40 7z m-47 -125 c-14 -14 -20 -11 -57 26 -36 36 -40 44 -28 58 12 14 18 12 57
-27 38 -38 41 -44 28 -57z m248 27 c-36 -36 -44 -40 -58 -28 -14 12 -12 18 27
57 38 38 44 41 57 28 14 -14 11 -20 -26 -57z m-326 -34 c3 -10 -4 -26 -20 -42
-22 -22 -28 -23 -42 -12 -14 12 -13 16 11 42 32 32 42 35 51 12z m397 -12 c24
-26 25 -30 11 -42 -14 -11 -20 -10 -42 12 -16 16 -23 32 -20 42 9 23 19 20 51
-12z m306 -117 c26 -32 -13 -81 -47 -59 -35 22 -23 74 17 74 10 0 23 -7 30
-15z m170 -95 l0 -50 -120 0 c-119 0 -120 0 -120 23 0 20 4 23 35 19 29 -4 40
1 63 27 24 27 33 30 85 31 l57 0 0 -50z m-282 -7 l-3 -38 -415 0 -415 0 -3 38
-3 37 421 0 421 0 -3 -37z m-338 -123 l0 -40 -80 0 -80 0 0 40 0 40 80 0 80 0
0 -40z m620 -40 l0 -80 -200 0 -200 0 0 80 0 80 200 0 200 0 0 -80z m-520 -60
c0 -19 -7 -20 -180 -20 -173 0 -180 1 -180 20 0 19 7 20 180 20 173 0 180 -1
180 -20z"/>
<path d="M1040 920 c0 -33 3 -40 20 -40 17 0 20 7 20 40 0 33 -3 40 -20 40
-17 0 -20 -7 -20 -40z"/>
<path d="M1120 920 c0 -33 3 -40 20 -40 17 0 20 7 20 40 0 33 -3 40 -20 40
-17 0 -20 -7 -20 -40z"/>
<path d="M800 600 c0 -13 7 -20 20 -20 13 0 20 7 20 20 0 13 -7 20 -20 20 -13
0 -20 -7 -20 -20z"/>
<path d="M95 214 c-54 -64 -56 -68 -53 -118 l3 -51 455 0 455 0 3 51 c3 50 1
54 -53 118 l-56 66 -349 0 -349 0 -56 -66z m766 -11 l33 -38 -197 -3 c-108 -1
-286 -1 -394 0 l-197 3 33 38 33 37 328 0 328 0 33 -37z m59 -103 c0 -20 -7
-20 -420 -20 -413 0 -420 0 -420 20 0 20 7 20 420 20 413 0 420 0 420 -20z"/>
<path d="M180 200 c0 -13 7 -20 20 -20 13 0 20 7 20 20 0 13 -7 20 -20 20 -13
0 -20 -7 -20 -20z"/>
<path d="M260 200 c0 -13 7 -20 20 -20 13 0 20 7 20 20 0 13 -7 20 -20 20 -13
0 -20 -7 -20 -20z"/>
<path d="M340 200 c0 -19 7 -20 160 -20 153 0 160 1 160 20 0 19 -7 20 -160
20 -153 0 -160 -1 -160 -20z"/>
<path d="M700 200 c0 -13 7 -20 20 -20 13 0 20 7 20 20 0 13 -7 20 -20 20 -13
0 -20 -7 -20 -20z"/>
<path d="M780 200 c0 -13 7 -20 20 -20 13 0 20 7 20 20 0 13 -7 20 -20 20 -13
0 -20 -7 -20 -20z"/>
<path d="M1020 180 c-17 -17 -20 -31 -18 -78 l3 -57 115 0 115 0 3 57 c4 83
-13 98 -118 98 -67 0 -83 -3 -100 -20z m178 -62 l3 -38 -80 0 -81 0 0 33 c0
19 3 37 7 41 4 4 39 5 78 4 l70 -3 3 -37z"/>
</g>
</svg>
