<?xml version="1.0" encoding="iso-8859-1"?>
<!-- Generator: Adobe Illustrator 19.0.0, SVG Export Plug-In . SVG Version: 6.00 Build 0)  -->
<svg version="1.1" id="Layer_1" xmlns="http://www.w3.org/2000/svg" xmlns:xlink="http://www.w3.org/1999/xlink" x="0px" y="0px"
	 viewBox="0 0 496 496" style="enable-background:new 0 0 496 496;" xml:space="preserve">
<rect x="176" y="296" style="fill:#6D6E71;" width="144" height="32"/>
<path style="fill:#EFE7E4;" d="M472,40c0-17.672-14.328-32-32-32H56C38.328,8,24,22.328,24,40v208h448V40z"/>
<path style="fill:#D8D1D0;" d="M472,40c0-14.896-10.224-27.304-24-30.872V248h24V40z"/>
<g>
	<polygon style="fill:#FFCB57;" points="112,104 96,48 120,48 152,104 	"/>
	<polygon style="fill:#FFCB57;" points="112,152 96,208 120,208 152,152 	"/>
</g>
<path style="fill:#66ADDD;" d="M56,296h384c17.672,0,32-14.328,32-32v-16H24v16C24,281.672,38.328,296,56,296z"/>
<path style="fill:#5B9DC1;" d="M472,264v-16h-24v46.872C461.776,291.296,472,278.896,472,264z"/>
<g>
	<path style="fill:#684621;" d="M440,304H56c-22.056,0-40-17.944-40-40V40C16,17.944,33.944,0,56,0h384c22.056,0,40,17.944,40,40
		v224C480,286.056,462.056,304,440,304z M56,16c-13.232,0-24,10.768-24,24v224c0,13.232,10.768,24,24,24h384
		c13.232,0,24-10.768,24-24V40c0-13.232-10.768-24-24-24H56z"/>
	<rect x="24" y="240" style="fill:#684621;" width="448" height="16"/>
	<rect x="312" y="296" style="fill:#684621;" width="16" height="32"/>
	<rect x="168" y="296" style="fill:#684621;" width="16" height="32"/>
	<rect x="136" y="320" style="fill:#684621;" width="224" height="16"/>
</g>
<rect x="8" y="360" style="fill:#6D6E71;" width="384" height="128"/>
<rect x="368" y="360" style="fill:#575759;" width="24" height="128"/>
<g>
	<path style="fill:#684621;" d="M400,496H0V352h400V496z M16,480h368V368H16V480z"/>
	<rect x="32" y="448" style="fill:#684621;" width="16" height="16"/>
	<rect x="64" y="448" style="fill:#684621;" width="16" height="16"/>
	<rect x="96" y="448" style="fill:#684621;" width="208" height="16"/>
	<rect x="320" y="448" style="fill:#684621;" width="16" height="16"/>
	<rect x="352" y="448" style="fill:#684621;" width="16" height="16"/>
	<rect x="32" y="416" style="fill:#684621;" width="16" height="16"/>
	<rect x="64" y="416" style="fill:#684621;" width="16" height="16"/>
	<rect x="96" y="416" style="fill:#684621;" width="16" height="16"/>
	<rect x="128" y="416" style="fill:#684621;" width="16" height="16"/>
	<rect x="160" y="416" style="fill:#684621;" width="16" height="16"/>
	<rect x="192" y="416" style="fill:#684621;" width="16" height="16"/>
	<rect x="224" y="416" style="fill:#684621;" width="16" height="16"/>
	<rect x="256" y="416" style="fill:#684621;" width="16" height="16"/>
	<rect x="288" y="416" style="fill:#684621;" width="16" height="16"/>
	<rect x="320" y="416" style="fill:#684621;" width="16" height="16"/>
	<rect x="352" y="416" style="fill:#684621;" width="16" height="16"/>
	<rect x="32" y="384" style="fill:#684621;" width="16" height="16"/>
	<rect x="64" y="384" style="fill:#684621;" width="16" height="16"/>
	<rect x="96" y="384" style="fill:#684621;" width="16" height="16"/>
	<rect x="128" y="384" style="fill:#684621;" width="16" height="16"/>
	<rect x="160" y="384" style="fill:#684621;" width="16" height="16"/>
	<rect x="192" y="384" style="fill:#684621;" width="16" height="16"/>
	<rect x="224" y="384" style="fill:#684621;" width="16" height="16"/>
	<rect x="256" y="384" style="fill:#684621;" width="16" height="16"/>
	<rect x="288" y="384" style="fill:#684621;" width="16" height="16"/>
	<rect x="320" y="384" style="fill:#684621;" width="16" height="16"/>
	<rect x="352" y="384" style="fill:#684621;" width="16" height="16"/>
</g>
<path style="fill:#6D6E71;" d="M456,360L456,360c17.672,0,32,14.328,32,32v64c0,17.672-14.328,32-32,32l0,0
	c-17.672,0-32-14.328-32-32v-64C424,374.328,438.328,360,456,360z"/>
<g>
	<path style="fill:#684621;" d="M456,496c-22.056,0-40-17.944-40-40v-64c0-22.056,17.944-40,40-40s40,17.944,40,40v64
		C496,478.056,478.056,496,456,496z M456,368c-13.232,0-24,10.768-24,24v64c0,13.232,10.768,24,24,24s24-10.768,24-24v-64
		C480,378.768,469.232,368,456,368z"/>
	<rect x="448" y="384" style="fill:#684621;" width="16" height="16"/>
	<rect x="424" y="400" style="fill:#684621;" width="64" height="16"/>
	<path style="fill:#684621;" d="M464,360h-16v-16c0-4.416-3.592-8-8-8h-32c-13.232,0-24-10.768-24-24v-16h16v16c0,4.416,3.592,8,8,8
		h32c13.232,0,24,10.768,24,24V360z"/>
</g>
<polygon style="fill:#FF6E6E;" points="168,152 96,152 96,104 168,104 192,128 "/>
<g>
	<path style="fill:#684621;" d="M171.312,160H88V96h83.312l32,32L171.312,160z M104,144h60.688l16-16l-16-16H104V144z"/>
	<polygon style="fill:#684621;" points="104.312,106.2 85.392,40 152,40 152,56 106.608,56 119.688,101.8 	"/>
	
		<rect x="127.986" y="43.757" transform="matrix(-0.8682 0.4961 -0.4961 -0.8682 291.7578 74.5124)" style="fill:#684621;" width="15.999" height="64.476"/>
	<polygon style="fill:#684621;" points="152,216 85.392,216 104.312,149.8 119.688,154.2 106.608,200 152,200 	"/>
	
		<rect x="103.746" y="172.005" transform="matrix(-0.4961 0.8682 -0.8682 -0.4961 359.7387 151.2424)" style="fill:#684621;" width="64.476" height="15.999"/>
	<rect x="168" y="40" style="fill:#684621;" width="16" height="16"/>
	<rect x="200" y="40" style="fill:#684621;" width="16" height="16"/>
	<rect x="232" y="40" style="fill:#684621;" width="16" height="16"/>
	<rect x="264" y="40" style="fill:#684621;" width="16" height="16"/>
	<rect x="296" y="40" style="fill:#684621;" width="16" height="16"/>
	<rect x="328" y="40" style="fill:#684621;" width="16" height="16"/>
	<rect x="360" y="40" style="fill:#684621;" width="16" height="16"/>
	<rect x="168" y="200" style="fill:#684621;" width="16" height="16"/>
	<rect x="200" y="200" style="fill:#684621;" width="16" height="16"/>
	<rect x="232" y="200" style="fill:#684621;" width="16" height="16"/>
	<rect x="264" y="200" style="fill:#684621;" width="16" height="16"/>
	<rect x="296" y="200" style="fill:#684621;" width="16" height="16"/>
	<rect x="328" y="200" style="fill:#684621;" width="16" height="16"/>
	<rect x="360" y="200" style="fill:#684621;" width="16" height="16"/>
</g>
<g>
</g>
<g>
</g>
<g>
</g>
<g>
</g>
<g>
</g>
<g>
</g>
<g>
</g>
<g>
</g>
<g>
</g>
<g>
</g>
<g>
</g>
<g>
</g>
<g>
</g>
<g>
</g>
<g>
</g>
</svg>
