<?xml version="1.0" standalone="no"?>
<!DOCTYPE svg PUBLIC "-//W3C//DTD SVG 20010904//EN"
 "http://www.w3.org/TR/2001/REC-SVG-20010904/DTD/svg10.dtd">
<svg version="1.0" xmlns="http://www.w3.org/2000/svg"
 width="128.000000pt" height="128.000000pt" viewBox="0 0 128.000000 128.000000"
 preserveAspectRatio="xMidYMid meet">

<g transform="translate(0.000000,128.000000) scale(0.100000,-0.100000)"
fill="#000000" stroke="none">
<path d="M477 1274 c-4 -4 -7 -16 -7 -26 0 -15 -8 -18 -44 -18 -58 0 -70 -16
-61 -80 5 -40 15 -59 41 -86 19 -19 43 -34 52 -34 26 0 105 -84 100 -106 -1
-11 -17 -25 -35 -33 -26 -12 -33 -21 -35 -50 -3 -31 -7 -36 -30 -39 l-28 -3 0
-124 0 -125 -187 -2 -188 -3 -3 -197 c-2 -195 -3 -197 -25 -200 -20 -3 -22 -8
-22 -73 l0 -70 270 0 c263 0 270 0 270 20 0 19 -8 20 -248 23 l-247 2 0 25 0
25 590 0 590 0 0 -25 0 -25 -247 -2 c-240 -3 -248 -4 -248 -23 0 -20 7 -20
270 -20 l270 0 0 70 c0 65 -2 70 -22 73 l-23 3 -2 252 -3 252 -185 5 -185 5
-3 67 c-3 64 -4 67 -30 70 -23 3 -27 8 -30 39 -2 29 -9 38 -35 50 -18 8 -34
22 -35 33 -5 22 74 106 100 106 9 0 33 15 52 34 26 27 36 46 41 86 9 64 -3 80
-61 80 -37 0 -43 3 -46 23 -3 22 -6 22 -164 25 -88 1 -163 -1 -167 -4z m283
-123 c0 -86 -21 -133 -70 -159 -39 -20 -98 -8 -134 27 -29 30 -31 36 -34 121
l-4 90 121 0 121 0 0 -79z m-290 -21 c0 -47 -2 -50 -19 -41 -17 9 -41 58 -41
82 0 5 14 9 30 9 29 0 30 -1 30 -50z m400 41 c0 -24 -24 -73 -41 -82 -17 -9
-19 -6 -19 41 0 49 1 50 30 50 17 0 30 -4 30 -9z m-200 -261 c0 -10 16 -32 35
-47 19 -15 35 -36 35 -45 0 -16 -11 -18 -100 -18 -90 0 -100 2 -100 18 0 10
13 28 30 40 16 12 33 34 36 47 5 19 13 25 35 25 22 0 29 -5 29 -20z m130 -460
l0 -300 -160 0 -160 0 0 300 0 300 160 0 160 0 0 -300z m380 -70 l0 -230 -165
0 -165 0 0 230 0 230 165 0 165 0 0 -230z m-750 -55 l0 -175 -165 0 -165 0 0
175 0 175 165 0 165 0 0 -175z"/>
<path d="M598 438 c-8 -21 2 -38 23 -38 17 0 19 -8 19 -95 0 -78 3 -97 16
-102 9 -3 20 0 25 8 10 16 12 199 3 223 -7 20 -80 22 -86 4z"/>
<path d="M978 439 c-24 -13 -39 -44 -32 -63 9 -22 29 -20 46 6 9 14 20 19 31
15 25 -10 21 -36 -8 -47 -32 -12 -32 -38 1 -50 29 -11 30 -43 1 -48 -11 -2
-20 6 -27 23 -12 32 -43 30 -48 -2 -4 -29 39 -73 71 -73 39 0 77 36 77 74 0
17 -5 37 -11 43 -8 8 -8 13 0 17 6 4 11 22 11 41 0 56 -64 92 -112 64z"/>
<path d="M216 429 c-15 -12 -26 -30 -26 -45 0 -30 25 -32 49 -2 19 22 41 18
41 -9 0 -8 -20 -44 -45 -79 -58 -83 -53 -96 34 -92 58 3 66 5 66 23 0 15 -8
21 -32 25 l-33 5 30 45 c38 58 40 101 4 129 -15 12 -34 21 -44 21 -10 0 -29
-9 -44 -21z"/>
<path d="M976 1140 l-28 -29 30 -31 c17 -16 33 -30 37 -30 11 0 65 57 65 69 0
5 -9 13 -20 16 -11 3 -20 13 -20 21 0 23 -33 15 -64 -16z"/>
<path d="M240 1026 c0 -8 -9 -18 -20 -21 -11 -3 -20 -11 -20 -16 0 -12 55 -69
66 -69 4 0 20 14 36 32 l28 31 -28 28 c-29 31 -62 38 -62 15z"/>
<path d="M623 34 c-8 -21 13 -42 28 -27 13 13 5 43 -11 43 -6 0 -13 -7 -17
-16z"/>
</g>
</svg>
