<?xml version="1.0" encoding="UTF-8"?>
<svg version="1.1" xmlns="http://www.w3.org/2000/svg" width="1410" height="1410">
<path d="M0 0 C465.3 0 930.6 0 1410 0 C1410 465.3 1410 930.6 1410 1410 C944.7 1410 479.4 1410 0 1410 C0 944.7 0 479.4 0 0 Z " fill="#161616" transform="translate(0,0)"/>
<path d="M0 0 C79.2 0 158.4 0 240 0 C240 9.9 240 19.8 240 30 C259.8 30 279.6 30 300 30 C300 39.9 300 49.8 300 60 C309.9 60 319.8 60 330 60 C330 69.9 330 79.8 330 90 C339.9 90 349.8 90 360 90 C360 109.8 360 129.6 360 150 C369.9 150 379.8 150 390 150 C390 278.7 390 407.4 390 540 C380.1 540 370.2 540 360 540 C360 569.7 360 599.4 360 630 C350.1 630 340.2 630 330 630 C330 649.8 330 669.6 330 690 C320.1 690 310.2 690 300 690 C300 709.8 300 729.6 300 750 C290.1 750 280.2 750 270 750 C270 759.9 270 769.8 270 780 C260.1 780 250.2 780 240 780 C240 789.9 240 799.8 240 810 C230.1 810 220.2 810 210 810 C210 819.9 210 829.8 210 840 C190.2 840 170.4 840 150 840 C150 849.9 150 859.8 150 870 C110.4 870 70.8 870 30 870 C30 860.1 30 850.2 30 840 C10.2 840 -9.6 840 -30 840 C-30 849.9 -30 859.8 -30 870 C-69.6 870 -109.2 870 -150 870 C-150 860.1 -150 850.2 -150 840 C-159.9 840 -169.8 840 -180 840 C-180 820.2 -180 800.4 -180 780 C-170.1 780 -160.2 780 -150 780 C-150 770.1 -150 760.2 -150 750 C-159.9 750 -169.8 750 -180 750 C-180 740.1 -180 730.2 -180 720 C-209.7 720 -239.4 720 -270 720 C-270 729.9 -270 739.8 -270 750 C-260.1 750 -250.2 750 -240 750 C-240 849 -240 948 -240 1050 C-289.5 1050 -339 1050 -390 1050 C-390 891.6 -390 733.2 -390 570 C-370.2 570 -350.4 570 -330 570 C-330 609.6 -330 649.2 -330 690 C-320.1 690 -310.2 690 -300 690 C-300 670.2 -300 650.4 -300 630 C-270.3 630 -240.6 630 -210 630 C-210 639.9 -210 649.8 -210 660 C-130.8 660 -51.6 660 30 660 C30 630.3 30 600.6 30 570 C-29.4 570 -88.8 570 -150 570 C-150 560.1 -150 550.2 -150 540 C-159.9 540 -169.8 540 -180 540 C-180 510.3 -180 480.6 -180 450 C-170.1 450 -160.2 450 -150 450 C-150 351 -150 252 -150 150 C-140.1 150 -130.2 150 -120 150 C-120 130.2 -120 110.4 -120 90 C-110.1 90 -100.2 90 -90 90 C-90 80.1 -90 70.2 -90 60 C-80.1 60 -70.2 60 -60 60 C-60 50.1 -60 40.2 -60 30 C-40.2 30 -20.4 30 0 30 C0 20.1 0 10.2 0 0 Z " fill="#FEFEFE" transform="translate(630,360)"/>
<path d="M0 0 C29.7 0 59.4 0 90 0 C90 108.9 90 217.8 90 330 C80.1 330 70.2 330 60 330 C60 359.7 60 389.4 60 420 C69.9 420 79.8 420 90 420 C90 429.9 90 439.8 90 450 C149.4 450 208.8 450 270 450 C270 479.7 270 509.4 270 540 C190.8 540 111.6 540 30 540 C30 530.1 30 520.2 30 510 C0.3 510 -29.4 510 -60 510 C-60 529.8 -60 549.6 -60 570 C-69.9 570 -79.8 570 -90 570 C-90 530.4 -90 490.8 -90 450 C-70.2 450 -50.4 450 -30 450 C-30 459.9 -30 469.8 -30 480 C-20.1 480 -10.2 480 0 480 C0 450.3 0 420.6 0 390 C-9.9 390 -19.8 390 -30 390 C-30 271.2 -30 152.4 -30 30 C-20.1 30 -10.2 30 0 30 C0 20.1 0 10.2 0 0 Z " fill="#F5BB3C" transform="translate(390,480)"/>
<path d="M0 0 C19.8 0 39.6 0 60 0 C60 39.6 60 79.2 60 120 C69.9 120 79.8 120 90 120 C90 238.8 90 357.6 90 480 C60.3 480 30.6 480 0 480 C0 321.6 0 163.2 0 0 Z " fill="#FEDAC2" transform="translate(240,930)"/>
<path d="M0 0 C9.9 0 19.8 0 30 0 C30 19.8 30 39.6 30 60 C39.9 60 49.8 60 60 60 C60 159 60 258 60 360 C40.2 360 20.4 360 0 360 C0 241.2 0 122.4 0 0 Z " fill="#A4E9DF" transform="translate(330,1050)"/>
<path d="M0 0 C9.9 0 19.8 0 30 0 C30 29.7 30 59.4 30 90 C39.9 90 49.8 90 60 90 C60 99.9 60 109.8 60 120 C119.4 120 178.8 120 240 120 C240 149.7 240 179.4 240 210 C160.8 210 81.6 210 0 210 C0 200.1 0 190.2 0 180 C69.3 180 138.6 180 210 180 C210 170.1 210 160.2 210 150 C150.6 150 91.2 150 30 150 C30 140.1 30 130.2 30 120 C20.1 120 10.2 120 0 120 C0 80.4 0 40.8 0 0 Z " fill="#000000" transform="translate(420,810)"/>
<path d="M0 0 C9.9 0 19.8 0 30 0 C30 158.4 30 316.8 30 480 C20.1 480 10.2 480 0 480 C0 321.6 0 163.2 0 0 Z " fill="#FD99A0" transform="translate(240,930)"/>
<path d="M0 0 C9.9 0 19.8 0 30 0 C30 69.3 30 138.6 30 210 C39.9 210 49.8 210 60 210 C60 219.9 60 229.8 60 240 C30.3 240 0.6 240 -30 240 C-30 200.4 -30 160.8 -30 120 C-20.1 120 -10.2 120 0 120 C0 80.4 0 40.8 0 0 Z " fill="#F4BB3C" transform="translate(300,660)"/>
<path d="M0 0 C9.9 0 19.8 0 30 0 C30 118.8 30 237.6 30 360 C20.1 360 10.2 360 0 360 C0 290.7 0 221.4 0 150 C-9.9 150 -19.8 150 -30 150 C-30 140.1 -30 130.2 -30 120 C-20.1 120 -10.2 120 0 120 C0 80.4 0 40.8 0 0 Z " fill="#000000" transform="translate(330,510)"/>
<path d="M0 0 C9.9 0 19.8 0 30 0 C30 118.8 30 237.6 30 360 C20.1 360 10.2 360 0 360 C0 241.2 0 122.4 0 0 Z " fill="#D3F1C1" transform="translate(300,1050)"/>
<path d="M0 0 C9.9 0 19.8 0 30 0 C30 39.6 30 79.2 30 120 C59.7 120 89.4 120 120 120 C120 110.1 120 100.2 120 90 C129.9 90 139.8 90 150 90 C150 119.7 150 149.4 150 180 C140.1 180 130.2 180 120 180 C120 170.1 120 160.2 120 150 C80.4 150 40.8 150 0 150 C0 100.5 0 51 0 0 Z " fill="#000000" transform="translate(240,780)"/>
<path d="M0 0 C9.9 0 19.8 0 30 0 C30 99 30 198 30 300 C20.1 300 10.2 300 0 300 C0 201 0 102 0 0 Z " fill="#BFCCF2" transform="translate(360,1110)"/>
<path d="M0 0 C9.9 0 19.8 0 30 0 C30 99 30 198 30 300 C20.1 300 10.2 300 0 300 C0 201 0 102 0 0 Z " fill="#010000" transform="translate(450,510)"/>
<path d="M0 0 C9.9 0 19.8 0 30 0 C30 99 30 198 30 300 C20.1 300 10.2 300 0 300 C0 201 0 102 0 0 Z " fill="#CBCBCB" transform="translate(480,510)"/>
<path d="M0 0 C9.9 0 19.8 0 30 0 C30 99 30 198 30 300 C20.1 300 10.2 300 0 300 C0 201 0 102 0 0 Z " fill="#F68D01" transform="translate(420,510)"/>
<path d="M0 0 C49.5 0 99 0 150 0 C150 9.9 150 19.8 150 30 C140.1 30 130.2 30 120 30 C120 39.9 120 49.8 120 60 C80.4 60 40.8 60 0 60 C0 40.2 0 20.4 0 0 Z " fill="#000000" transform="translate(420,390)"/>
<path d="M0 0 C19.8 0 39.6 0 60 0 C60 9.9 60 19.8 60 30 C79.8 30 99.6 30 120 30 C120 39.9 120 49.8 120 60 C90.3 60 60.6 60 30 60 C30 79.8 30 99.6 30 120 C20.1 120 10.2 120 0 120 C0 80.4 0 40.8 0 0 Z " fill="#D3F1C1" transform="translate(300,930)"/>
<path d="M0 0 C79.2 0 158.4 0 240 0 C240 9.9 240 19.8 240 30 C160.8 30 81.6 30 0 30 C0 20.1 0 10.2 0 0 Z " fill="#000000" transform="translate(630,330)"/>
<path d="M0 0 C9.9 0 19.8 0 30 0 C30 29.7 30 59.4 30 90 C39.9 90 49.8 90 60 90 C60 109.8 60 129.6 60 150 C50.1 150 40.2 150 30 150 C30 140.1 30 130.2 30 120 C20.1 120 10.2 120 0 120 C0 80.4 0 40.8 0 0 Z " fill="#010000" transform="translate(420,810)"/>
<path d="M0 0 C39.6 0 79.2 0 120 0 C120 9.9 120 19.8 120 30 C110.1 30 100.2 30 90 30 C90 39.9 90 49.8 90 60 C70.2 60 50.4 60 30 60 C30 50.1 30 40.2 30 30 C20.1 30 10.2 30 0 30 C0 20.1 0 10.2 0 0 Z " fill="#000000" transform="translate(840,570)"/>
<path d="M0 0 C39.6 0 79.2 0 120 0 C120 9.9 120 19.8 120 30 C110.1 30 100.2 30 90 30 C90 39.9 90 49.8 90 60 C70.2 60 50.4 60 30 60 C30 50.1 30 40.2 30 30 C20.1 30 10.2 30 0 30 C0 20.1 0 10.2 0 0 Z " fill="#000000" transform="translate(690,570)"/>
<path d="M0 0 C9.9 0 19.8 0 30 0 C30 9.9 30 19.8 30 30 C59.7 30 89.4 30 120 30 C120 49.8 120 69.6 120 90 C110.1 90 100.2 90 90 90 C90 80.1 90 70.2 90 60 C60.3 60 30.6 60 0 60 C0 40.2 0 20.4 0 0 Z " fill="#000000" transform="translate(390,420)"/>
<path d="M0 0 C19.8 0 39.6 0 60 0 C60 19.8 60 39.6 60 60 C30.3 60 0.6 60 -30 60 C-30 50.1 -30 40.2 -30 30 C-20.1 30 -10.2 30 0 30 C0 20.1 0 10.2 0 0 Z " fill="#000000" transform="translate(600,780)"/>
<path d="M0 0 C39.6 0 79.2 0 120 0 C120 9.9 120 19.8 120 30 C80.4 30 40.8 30 0 30 C0 20.1 0 10.2 0 0 Z " fill="#000000" transform="translate(660,1230)"/>
<path d="M0 0 C39.6 0 79.2 0 120 0 C120 9.9 120 19.8 120 30 C80.4 30 40.8 30 0 30 C0 20.1 0 10.2 0 0 Z " fill="#000000" transform="translate(480,1230)"/>
<path d="M0 0 C29.7 0 59.4 0 90 0 C90 9.9 90 19.8 90 30 C80.1 30 70.2 30 60 30 C60 39.9 60 49.8 60 60 C50.1 60 40.2 60 30 60 C30 50.1 30 40.2 30 30 C20.1 30 10.2 30 0 30 C0 20.1 0 10.2 0 0 Z " fill="#CBCBCB" transform="translate(450,1080)"/>
<path d="M0 0 C9.9 0 19.8 0 30 0 C30 39.6 30 79.2 30 120 C20.1 120 10.2 120 0 120 C0 80.4 0 40.8 0 0 Z " fill="#000000" transform="translate(270,660)"/>
<path d="M0 0 C29.7 0 59.4 0 90 0 C90 9.9 90 19.8 90 30 C60.3 30 30.6 30 0 30 C0 20.1 0 10.2 0 0 Z " fill="#000000" transform="translate(360,1080)"/>
<path d="M0 0 C29.7 0 59.4 0 90 0 C90 9.9 90 19.8 90 30 C60.3 30 30.6 30 0 30 C0 20.1 0 10.2 0 0 Z " fill="#CBCBCB" transform="translate(330,960)"/>
<path d="M0 0 C29.7 0 59.4 0 90 0 C90 9.9 90 19.8 90 30 C60.3 30 30.6 30 0 30 C0 20.1 0 10.2 0 0 Z " fill="#F68D02" transform="translate(270,870)"/>
<path d="M0 0 C9.9 0 19.8 0 30 0 C30 29.7 30 59.4 30 90 C20.1 90 10.2 90 0 90 C0 60.3 0 30.6 0 0 Z " fill="#000000" transform="translate(1110,840)"/>
<path d="M0 0 C9.9 0 19.8 0 30 0 C30 29.7 30 59.4 30 90 C20.1 90 10.2 90 0 90 C0 60.3 0 30.6 0 0 Z " fill="#FEFEFE" transform="translate(1080,840)"/>
<path d="M0 0 C9.9 0 19.8 0 30 0 C30 29.7 30 59.4 30 90 C20.1 90 10.2 90 0 90 C0 60.3 0 30.6 0 0 Z " fill="#000000" transform="translate(660,840)"/>
<path d="M0 0 C9.9 0 19.8 0 30 0 C30 29.7 30 59.4 30 90 C20.1 90 10.2 90 0 90 C0 60.3 0 30.6 0 0 Z " fill="#CCCCCC" transform="translate(450,810)"/>
<path d="M0 0 C29.7 0 59.4 0 90 0 C90 9.9 90 19.8 90 30 C60.3 30 30.6 30 0 30 C0 20.1 0 10.2 0 0 Z " fill="#F5BB3E" transform="translate(420,420)"/>
<path d="M0 0 C19.8 0 39.6 0 60 0 C60 9.9 60 19.8 60 30 C40.2 30 20.4 30 0 30 C0 20.1 0 10.2 0 0 Z " fill="#000000" transform="translate(780,1200)"/>
<path d="M0 0 C19.8 0 39.6 0 60 0 C60 9.9 60 19.8 60 30 C40.2 30 20.4 30 0 30 C0 20.1 0 10.2 0 0 Z " fill="#000000" transform="translate(600,1200)"/>
<path d="M0 0 C19.8 0 39.6 0 60 0 C60 9.9 60 19.8 60 30 C40.2 30 20.4 30 0 30 C0 20.1 0 10.2 0 0 Z " fill="#CBCBCB" transform="translate(630,1170)"/>
<path d="M0 0 C9.9 0 19.8 0 30 0 C30 19.8 30 39.6 30 60 C20.1 60 10.2 60 0 60 C0 40.2 0 20.4 0 0 Z " fill="#000000" transform="translate(420,1140)"/>
<path d="M0 0 C9.9 0 19.8 0 30 0 C30 19.8 30 39.6 30 60 C20.1 60 10.2 60 0 60 C0 40.2 0 20.4 0 0 Z " fill="#000000" transform="translate(930,1050)"/>
<path d="M0 0 C9.9 0 19.8 0 30 0 C30 19.8 30 39.6 30 60 C20.1 60 10.2 60 0 60 C0 40.2 0 20.4 0 0 Z " fill="#000000" transform="translate(300,990)"/>
<path d="M0 0 C19.8 0 39.6 0 60 0 C60 9.9 60 19.8 60 30 C40.2 30 20.4 30 0 30 C0 20.1 0 10.2 0 0 Z " fill="#F4BA3E" transform="translate(1020,960)"/>
<path d="M0 0 C19.8 0 39.6 0 60 0 C60 9.9 60 19.8 60 30 C40.2 30 20.4 30 0 30 C0 20.1 0 10.2 0 0 Z " fill="#000000" transform="translate(810,690)"/>
<path d="M0 0 C9.9 0 19.8 0 30 0 C30 19.8 30 39.6 30 60 C20.1 60 10.2 60 0 60 C0 40.2 0 20.4 0 0 Z " fill="#000000" transform="translate(990,450)"/>
<path d="M0 0 C9.9 0 19.8 0 30 0 C30 19.8 30 39.6 30 60 C20.1 60 10.2 60 0 60 C0 40.2 0 20.4 0 0 Z " fill="#CBCBCB" transform="translate(510,450)"/>
<path d="M0 0 C19.8 0 39.6 0 60 0 C60 9.9 60 19.8 60 30 C40.2 30 20.4 30 0 30 C0 20.1 0 10.2 0 0 Z " fill="#CCCCCC" transform="translate(570,390)"/>
<path d="M0 0 C19.8 0 39.6 0 60 0 C60 9.9 60 19.8 60 30 C40.2 30 20.4 30 0 30 C0 20.1 0 10.2 0 0 Z " fill="#000000" transform="translate(870,360)"/>
<path d="M0 0 C19.8 0 39.6 0 60 0 C60 9.9 60 19.8 60 30 C40.2 30 20.4 30 0 30 C0 20.1 0 10.2 0 0 Z " fill="#000000" transform="translate(570,360)"/>
<path d="M0 0 C9.9 0 19.8 0 30 0 C30 9.9 30 19.8 30 30 C20.1 30 10.2 30 0 30 C0 20.1 0 10.2 0 0 Z " fill="#000000" transform="translate(450,1200)"/>
<path d="M0 0 C9.9 0 19.8 0 30 0 C30 9.9 30 19.8 30 30 C20.1 30 10.2 30 0 30 C0 20.1 0 10.2 0 0 Z " fill="#000000" transform="translate(840,1170)"/>
<path d="M0 0 C9.9 0 19.8 0 30 0 C30 9.9 30 19.8 30 30 C20.1 30 10.2 30 0 30 C0 20.1 0 10.2 0 0 Z " fill="#000000" transform="translate(870,1140)"/>
<path d="M0 0 C9.9 0 19.8 0 30 0 C30 9.9 30 19.8 30 30 C20.1 30 10.2 30 0 30 C0 20.1 0 10.2 0 0 Z " fill="#CBCBCB" transform="translate(690,1140)"/>
<path d="M0 0 C9.9 0 19.8 0 30 0 C30 9.9 30 19.8 30 30 C20.1 30 10.2 30 0 30 C0 20.1 0 10.2 0 0 Z " fill="#CBCBCB" transform="translate(450,1140)"/>
<path d="M0 0 C9.9 0 19.8 0 30 0 C30 9.9 30 19.8 30 30 C20.1 30 10.2 30 0 30 C0 20.1 0 10.2 0 0 Z " fill="#000000" transform="translate(900,1110)"/>
<path d="M0 0 C9.9 0 19.8 0 30 0 C30 9.9 30 19.8 30 30 C20.1 30 10.2 30 0 30 C0 20.1 0 10.2 0 0 Z " fill="#000000" transform="translate(450,1110)"/>
<path d="M0 0 C9.9 0 19.8 0 30 0 C30 9.9 30 19.8 30 30 C20.1 30 10.2 30 0 30 C0 20.1 0 10.2 0 0 Z " fill="#000000" transform="translate(330,1050)"/>
<path d="M0 0 C9.9 0 19.8 0 30 0 C30 9.9 30 19.8 30 30 C20.1 30 10.2 30 0 30 C0 20.1 0 10.2 0 0 Z " fill="#CBCBCB" transform="translate(330,990)"/>
<path d="M0 0 C9.9 0 19.8 0 30 0 C30 9.9 30 19.8 30 30 C20.1 30 10.2 30 0 30 C0 20.1 0 10.2 0 0 Z " fill="#010000" transform="translate(390,960)"/>
<path d="M0 0 C9.9 0 19.8 0 30 0 C30 9.9 30 19.8 30 30 C20.1 30 10.2 30 0 30 C0 20.1 0 10.2 0 0 Z " fill="#000001" transform="translate(330,960)"/>
<path d="M0 0 C9.9 0 19.8 0 30 0 C30 9.9 30 19.8 30 30 C20.1 30 10.2 30 0 30 C0 20.1 0 10.2 0 0 Z " fill="#A5E9DE" transform="translate(330,930)"/>
<path d="M0 0 C9.9 0 19.8 0 30 0 C30 9.9 30 19.8 30 30 C20.1 30 10.2 30 0 30 C0 20.1 0 10.2 0 0 Z " fill="#1A1917" transform="translate(450,930)"/>
<path d="M0 0 C9.9 0 19.8 0 30 0 C30 9.9 30 19.8 30 30 C20.1 30 10.2 30 0 30 C0 20.1 0 10.2 0 0 Z " fill="#000000" transform="translate(450,900)"/>
<path d="M0 0 C9.9 0 19.8 0 30 0 C30 9.9 30 19.8 30 30 C20.1 30 10.2 30 0 30 C0 20.1 0 10.2 0 0 Z " fill="#1A1918" transform="translate(420,900)"/>
<path d="M0 0 C9.9 0 19.8 0 30 0 C30 9.9 30 19.8 30 30 C20.1 30 10.2 30 0 30 C0 20.1 0 10.2 0 0 Z " fill="#FEEE9B" transform="translate(300,660)"/>
<path d="M0 0 C9.9 0 19.8 0 30 0 C30 9.9 30 19.8 30 30 C20.1 30 10.2 30 0 30 C0 20.1 0 10.2 0 0 Z " fill="#FEEE99" transform="translate(360,510)"/>
<path d="M0 0 C9.9 0 19.8 0 30 0 C30 9.9 30 19.8 30 30 C20.1 30 10.2 30 0 30 C0 20.1 0 10.2 0 0 Z " fill="#F68D04" transform="translate(450,480)"/>
<path d="M0 0 C9.9 0 19.8 0 30 0 C30 9.9 30 19.8 30 30 C20.1 30 10.2 30 0 30 C0 20.1 0 10.2 0 0 Z " fill="#FEEE9A" transform="translate(390,480)"/>
<path d="M0 0 C9.9 0 19.8 0 30 0 C30 9.9 30 19.8 30 30 C20.1 30 10.2 30 0 30 C0 20.1 0 10.2 0 0 Z " fill="#000000" transform="translate(360,480)"/>
<path d="M0 0 C9.9 0 19.8 0 30 0 C30 9.9 30 19.8 30 30 C20.1 30 10.2 30 0 30 C0 20.1 0 10.2 0 0 Z " fill="#F58E04" transform="translate(480,420)"/>
<path d="M0 0 C9.9 0 19.8 0 30 0 C30 9.9 30 19.8 30 30 C20.1 30 10.2 30 0 30 C0 20.1 0 10.2 0 0 Z " fill="#FEEF9B" transform="translate(420,420)"/>
<path d="M0 0 C9.9 0 19.8 0 30 0 C30 9.9 30 19.8 30 30 C20.1 30 10.2 30 0 30 C0 20.1 0 10.2 0 0 Z " fill="#000000" transform="translate(960,420)"/>
<path d="M0 0 C9.9 0 19.8 0 30 0 C30 9.9 30 19.8 30 30 C20.1 30 10.2 30 0 30 C0 20.1 0 10.2 0 0 Z " fill="#CBCBCB" transform="translate(540,420)"/>
<path d="M0 0 C9.9 0 19.8 0 30 0 C30 9.9 30 19.8 30 30 C20.1 30 10.2 30 0 30 C0 20.1 0 10.2 0 0 Z " fill="#000000" transform="translate(930,390)"/>
<path d="M0 0 C9.9 0 19.8 0 30 0 C30 9.9 30 19.8 30 30 C20.1 30 10.2 30 0 30 C0 20.1 0 10.2 0 0 Z " fill="#CCCCCC" transform="translate(630,360)"/>
</svg>
