<?xml version="1.0" encoding="UTF-8"?>
<!DOCTYPE svg PUBLIC "-//W3C//DTD SVG 1.1//EN" "http://www.w3.org/Graphics/SVG/1.1/DTD/svg11.dtd">
<svg xmlns="http://www.w3.org/2000/svg" version="1.1" width="512px" height="512px" style="shape-rendering:geometricPrecision; text-rendering:geometricPrecision; image-rendering:optimizeQuality; fill-rule:evenodd; clip-rule:evenodd" xmlns:xlink="http://www.w3.org/1999/xlink">
<g><path style="opacity:1" fill="#32cbdc" d="M -0.5,-0.5 C 169.833,-0.5 340.167,-0.5 510.5,-0.5C 509.5,0.833333 508.5,2.16667 507.5,3.5C 501.167,9.16667 495.167,15.1667 489.5,21.5C 484.167,26.1667 479.167,31.1667 474.5,36.5C 468.167,42.1667 462.167,48.1667 456.5,54.5C 451.167,59.1667 446.167,64.1667 441.5,69.5C 435.167,75.1667 429.167,81.1667 423.5,87.5C 418.167,92.1667 413.167,97.1667 408.5,102.5C 402.167,108.167 396.167,114.167 390.5,120.5C 385.167,125.167 380.167,130.167 375.5,135.5C 369.167,141.167 363.167,147.167 357.5,153.5C 356.833,153.5 356.5,153.833 356.5,154.5C 329.208,114.688 291.208,95.8549 242.5,98C 209.643,103.014 182.81,118.514 162,144.5C 133.749,187.36 132.082,231.36 157,276.5C 167.36,292.027 180.194,305.027 195.5,315.5C 189.167,321.167 183.167,327.167 177.5,333.5C 171.167,339.167 165.167,345.167 159.5,351.5C 154.167,356.167 149.167,361.167 144.5,366.5C 138.167,372.167 132.167,378.167 126.5,384.5C 125.5,384.833 124.833,385.5 124.5,386.5C 124.167,386.5 123.833,386.5 123.5,386.5C 82.5,344.833 41.1667,303.5 -0.5,262.5C -0.5,174.833 -0.5,87.1667 -0.5,-0.5 Z"/></g>
<g><path style="opacity:1" fill="#764df0" d="M 510.5,-0.5 C 510.833,-0.5 511.167,-0.5 511.5,-0.5C 511.5,170.167 511.5,340.833 511.5,511.5C 423.833,511.5 336.167,511.5 248.5,511.5C 207.964,469.297 166.631,427.63 124.5,386.5C 124.833,385.5 125.5,384.833 126.5,384.5C 133.5,379.5 139.5,373.5 144.5,366.5C 149.167,361.167 154.167,356.167 159.5,351.5C 166.5,346.5 172.5,340.5 177.5,333.5C 183.167,327.167 189.167,321.167 195.5,315.5C 208.714,322.349 222.714,327.016 237.5,329.5C 237.918,330.222 238.584,330.722 239.5,331C 248.343,331.824 257.01,331.657 265.5,330.5C 266.5,330.5 267.5,330.5 268.5,330.5C 275.589,330.656 282.256,329.322 288.5,326.5C 330.252,312.414 356.918,284.08 368.5,241.5C 369.924,239.485 370.59,237.152 370.5,234.5C 370.5,231.833 370.5,229.167 370.5,226.5C 371.659,216.342 371.825,206.008 371,195.5C 370.34,192.322 369.507,189.322 368.5,186.5C 368.5,186.167 368.5,185.833 368.5,185.5C 368.655,182.284 367.655,179.617 365.5,177.5C 362.771,169.711 359.771,162.044 356.5,154.5C 356.5,153.833 356.833,153.5 357.5,153.5C 364.5,148.5 370.5,142.5 375.5,135.5C 380.167,130.167 385.167,125.167 390.5,120.5C 397.5,115.5 403.5,109.5 408.5,102.5C 413.167,97.1667 418.167,92.1667 423.5,87.5C 430.5,82.5 436.5,76.5 441.5,69.5C 446.167,64.1667 451.167,59.1667 456.5,54.5C 463.5,49.5 469.5,43.5 474.5,36.5C 479.167,31.1667 484.167,26.1667 489.5,21.5C 496.5,16.5 502.5,10.5 507.5,3.5C 508.5,2.16667 509.5,0.833333 510.5,-0.5 Z"/></g>
<g><path style="opacity:1" fill="#6968ec" d="M 507.5,3.5 C 502.5,10.5 496.5,16.5 489.5,21.5C 495.167,15.1667 501.167,9.16667 507.5,3.5 Z"/></g>
<g><path style="opacity:1" fill="#6968ec" d="M 474.5,36.5 C 469.5,43.5 463.5,49.5 456.5,54.5C 462.167,48.1667 468.167,42.1667 474.5,36.5 Z"/></g>
<g><path style="opacity:1" fill="#6968ec" d="M 441.5,69.5 C 436.5,76.5 430.5,82.5 423.5,87.5C 429.167,81.1667 435.167,75.1667 441.5,69.5 Z"/></g>
<g><path style="opacity:1" fill="#fdfefe" d="M 356.5,154.5 C 359.771,162.044 362.771,169.711 365.5,177.5C 366.129,180.397 367.129,183.064 368.5,185.5C 368.5,185.833 368.5,186.167 368.5,186.5C 370.177,199.765 370.843,213.098 370.5,226.5C 370.5,229.167 370.5,231.833 370.5,234.5C 369.076,236.515 368.41,238.848 368.5,241.5C 356.918,284.08 330.252,312.414 288.5,326.5C 281.701,327.751 275.034,329.084 268.5,330.5C 267.5,330.5 266.5,330.5 265.5,330.5C 256.134,330.721 246.801,330.387 237.5,329.5C 222.714,327.016 208.714,322.349 195.5,315.5C 180.194,305.027 167.36,292.027 157,276.5C 132.082,231.36 133.749,187.36 162,144.5C 182.81,118.514 209.643,103.014 242.5,98C 291.208,95.8549 329.208,114.688 356.5,154.5 Z"/></g>
<g><path style="opacity:1" fill="#6968ec" d="M 408.5,102.5 C 403.5,109.5 397.5,115.5 390.5,120.5C 396.167,114.167 402.167,108.167 408.5,102.5 Z"/></g>
<g><path style="opacity:1" fill="#34cbdd" d="M 324.5,186.5 C 308.167,202.167 292.167,218.167 276.5,234.5C 270.167,240.167 264.167,246.167 258.5,252.5C 252.833,257.5 247.5,262.833 242.5,268.5C 237.167,273.5 231.833,278.5 226.5,283.5C 208.46,275.958 195.96,262.958 189,244.5C 178.917,216.418 182.251,190.085 199,165.5C 226.842,134.998 259.008,129.498 295.5,149C 310.117,157.763 319.784,170.263 324.5,186.5 Z"/></g>
<g><path style="opacity:1" fill="#6968ec" d="M 375.5,135.5 C 370.5,142.5 364.5,148.5 357.5,153.5C 363.167,147.167 369.167,141.167 375.5,135.5 Z"/></g>
<g><path style="opacity:1" fill="#a98ef6" d="M 365.5,177.5 C 367.655,179.617 368.655,182.284 368.5,185.5C 367.129,183.064 366.129,180.397 365.5,177.5 Z"/></g>
<g><path style="opacity:1" fill="#764ef0" d="M 324.5,186.5 C 327.677,193.367 329.343,200.701 329.5,208.5C 329.942,218.998 328.942,229.332 326.5,239.5C 311.075,277.563 282.741,294.063 241.5,289C 237.573,288.276 233.906,287.109 230.5,285.5C 229.697,284.577 229.53,283.577 230,282.5C 234.768,278.24 238.934,273.573 242.5,268.5C 247.5,262.833 252.833,257.5 258.5,252.5C 265.5,247.5 271.5,241.5 276.5,234.5C 292.167,218.167 308.167,202.167 324.5,186.5 Z"/></g>
<g><path style="opacity:1" fill="#ded3fb" d="M 368.5,186.5 C 369.507,189.322 370.34,192.322 371,195.5C 371.825,206.008 371.659,216.342 370.5,226.5C 370.843,213.098 370.177,199.765 368.5,186.5 Z"/></g>
<g><path style="opacity:1" fill="#d2c2fa" d="M 329.5,208.5 C 330.654,214.987 330.821,221.654 330,228.5C 329.502,232.491 328.335,236.158 326.5,239.5C 328.942,229.332 329.942,218.998 329.5,208.5 Z"/></g>
<g><path style="opacity:1" fill="#6968ec" d="M 276.5,234.5 C 271.5,241.5 265.5,247.5 258.5,252.5C 264.167,246.167 270.167,240.167 276.5,234.5 Z"/></g>
<g><path style="opacity:1" fill="#ae94f6" d="M 370.5,234.5 C 370.59,237.152 369.924,239.485 368.5,241.5C 368.41,238.848 369.076,236.515 370.5,234.5 Z"/></g>
<g><path style="opacity:1" fill="#f7b850" d="M -0.5,262.5 C 41.1667,303.5 82.5,344.833 123.5,386.5C 82.5,428.167 41.1667,469.5 -0.5,510.5C -0.5,427.833 -0.5,345.167 -0.5,262.5 Z"/></g>
<g><path style="opacity:1" fill="#6e69ed" d="M 242.5,268.5 C 238.934,273.573 234.768,278.24 230,282.5C 229.53,283.577 229.697,284.577 230.5,285.5C 228.847,285.34 227.514,284.674 226.5,283.5C 231.833,278.5 237.167,273.5 242.5,268.5 Z"/></g>
<g><path style="opacity:1" fill="#9c7df5" d="M 288.5,326.5 C 282.256,329.322 275.589,330.656 268.5,330.5C 275.034,329.084 281.701,327.751 288.5,326.5 Z"/></g>
<g><path style="opacity:1" fill="#a98ff6" d="M 237.5,329.5 C 246.801,330.387 256.134,330.721 265.5,330.5C 257.01,331.657 248.343,331.824 239.5,331C 238.584,330.722 237.918,330.222 237.5,329.5 Z"/></g>
<g><path style="opacity:1" fill="#6968ec" d="M 177.5,333.5 C 172.5,340.5 166.5,346.5 159.5,351.5C 165.167,345.167 171.167,339.167 177.5,333.5 Z"/></g>
<g><path style="opacity:1" fill="#e0d6fc" d="M 226.5,364.5 C 221.809,363.327 217.142,363.327 212.5,364.5C 213.768,362.613 215.601,361.613 218,361.5C 221.108,362.034 223.941,363.034 226.5,364.5 Z"/></g>
<g><path style="opacity:1" fill="#fdfcfe" d="M 295.5,362.5 C 300.662,364.697 301.829,368.364 299,373.5C 285.833,386.667 272.667,399.833 259.5,413C 257.305,414.373 254.971,414.706 252.5,414C 239,400.5 225.5,387 212,373.5C 209.859,370.187 210.026,367.187 212.5,364.5C 217.142,363.327 221.809,363.327 226.5,364.5C 230.833,365.167 235.167,365.833 239.5,366.5C 250.993,367.659 262.659,367.826 274.5,367C 276.382,366.802 278.048,366.302 279.5,365.5C 284.932,364.908 290.265,363.908 295.5,362.5 Z"/></g>
<g><path style="opacity:1" fill="#d1c3fa" d="M 295.5,362.5 C 290.265,363.908 284.932,364.908 279.5,365.5C 282.816,364.653 286.15,363.486 289.5,362C 291.712,361.211 293.712,361.378 295.5,362.5 Z"/></g>
<g><path style="opacity:1" fill="#c5b2f9" d="M 279.5,365.5 C 278.048,366.302 276.382,366.802 274.5,367C 262.659,367.826 250.993,367.659 239.5,366.5C 252.851,366.666 266.185,366.333 279.5,365.5 Z"/></g>
<g><path style="opacity:1" fill="#6968ec" d="M 144.5,366.5 C 139.5,373.5 133.5,379.5 126.5,384.5C 132.167,378.167 138.167,372.167 144.5,366.5 Z"/></g>
<g><path style="opacity:1" fill="#f36c52" d="M 123.5,386.5 C 123.833,386.5 124.167,386.5 124.5,386.5C 166.631,427.63 207.964,469.297 248.5,511.5C 165.5,511.5 82.5,511.5 -0.5,511.5C -0.5,511.167 -0.5,510.833 -0.5,510.5C 41.1667,469.5 82.5,428.167 123.5,386.5 Z"/></g>
</svg>
