<?xml version="1.0" encoding="UTF-8"?>
<!DOCTYPE svg PUBLIC "-//W3C//DTD SVG 1.1//EN" "http://www.w3.org/Graphics/SVG/1.1/DTD/svg11.dtd">
<svg xmlns="http://www.w3.org/2000/svg" version="1.1" width="293px" height="300px" style="shape-rendering:geometricPrecision; text-rendering:geometricPrecision; image-rendering:optimizeQuality; fill-rule:evenodd; clip-rule:evenodd" xmlns:xlink="http://www.w3.org/1999/xlink">
<g><path style="opacity:1" fill="#3dcf8e" d="M 126.5,-0.5 C 130.167,-0.5 133.833,-0.5 137.5,-0.5C 140.941,1.61155 143.275,4.61155 144.5,8.5C 143.35,7.14976 142.683,7.31643 142.5,9C 143.323,41.4705 143.823,73.9705 144,106.5C 144.168,73.9974 144.668,41.6641 145.5,9.5C 145.5,41.5 145.5,73.5 145.5,105.5C 145.5,114.5 145.5,123.5 145.5,132.5C 145.5,152.833 145.5,173.167 145.5,193.5C 105.261,193.17 65.0942,193.503 25,194.5C 19.0784,192.956 13.5784,190.456 8.5,187C 4.58492,182.657 1.58492,177.823 -0.5,172.5C -0.5,168.5 -0.5,164.5 -0.5,160.5C 0.355367,157.825 1.52203,155.158 3,152.5C 42.3076,103.445 81.6409,53.7783 121,3.5C 122.812,2.02294 124.645,0.689603 126.5,-0.5 Z"/></g>
<g><path style="opacity:1" fill="#40d794" d="M 144.5,8.5 C 145.167,8.5 145.5,8.83333 145.5,9.5C 144.668,41.6641 144.168,73.9974 144,106.5C 143.823,73.9705 143.323,41.4705 142.5,9C 142.683,7.31643 143.35,7.14976 144.5,8.5 Z"/></g>
<g><path style="opacity:0.901" fill="#1e8054" d="M 145.5,105.5 C 161.167,105.5 176.833,105.5 192.5,105.5C 192.389,106.117 192.056,106.617 191.5,107C 187.514,107.499 183.514,107.666 179.5,107.5C 174.821,107.334 170.155,107.501 165.5,108C 169.167,108.333 172.833,108.667 176.5,109C 167.211,113.929 157.878,118.762 148.5,123.5C 147.508,127.783 147.174,132.116 147.5,136.5C 147.737,137.791 147.404,138.791 146.5,139.5C 146.802,136.941 146.468,134.607 145.5,132.5C 145.5,123.5 145.5,114.5 145.5,105.5 Z"/></g>
<g><path style="opacity:0.988" fill="#249260" d="M 200.5,105.5 C 207.5,105.5 214.5,105.5 221.5,105.5C 221.158,106.338 220.492,106.672 219.5,106.5C 216.161,106.89 212.827,107.39 209.5,108C 210.167,108.333 210.833,108.667 211.5,109C 196.465,131.408 181.299,153.908 166,176.5C 160.041,189.413 154.374,202.413 149,215.5C 148.722,214.584 148.222,213.918 147.5,213.5C 147.5,206.5 147.5,199.5 147.5,192.5C 147.171,186.463 147.504,180.463 148.5,174.5C 155.486,171.116 162.32,167.449 169,163.5C 179.864,145.966 191.531,128.966 204,112.5C 204.309,111.234 204.809,110.067 205.5,109C 204.584,108.722 203.918,108.222 203.5,107.5C 202.5,106.833 201.5,106.167 200.5,105.5 Z"/></g>
<g><path style="opacity:0.988" fill="#2eab73" d="M 227.5,106.5 C 227.5,106.167 227.5,105.833 227.5,105.5C 235.167,105.5 242.833,105.5 250.5,105.5C 250.5,105.833 250.5,106.167 250.5,106.5C 248.143,106.337 245.81,106.503 243.5,107C 242.944,107.383 242.611,107.883 242.5,108.5C 231.278,124.457 219.945,140.29 208.5,156C 189.008,203.094 169.342,249.594 149.5,295.5C 147.395,292.592 146.395,289.258 146.5,285.5C 162.899,245.088 180.399,203.421 199,160.5C 210.819,142.468 222.985,125.301 235.5,109C 231.815,108.086 232.148,107.419 236.5,107C 233.518,106.502 230.518,106.335 227.5,106.5 Z"/></g>
<g><path style="opacity:0.989" fill="#37be82" d="M 250.5,106.5 C 250.5,106.167 250.5,105.833 250.5,105.5C 256.167,105.5 261.833,105.5 267.5,105.5C 265.337,106.469 263.004,107.302 260.5,108C 261.5,108.333 262.5,108.667 263.5,109C 260.679,113.004 258.012,117.171 255.5,121.5C 250.593,124.873 246.76,129.207 244,134.5C 233.212,163.287 221.545,191.287 209,218.5C 201.802,237.761 193.636,256.595 184.5,275C 185.056,275.383 185.389,275.883 185.5,276.5C 181.409,282.347 177.076,288.013 172.5,293.5C 171.135,295.86 169.135,297.527 166.5,298.5C 187.982,248.516 209.482,197.182 231,144.5C 240.145,132.314 248.645,120.314 256.5,108.5C 252.551,108.307 252.551,107.807 256.5,107C 254.866,106.506 253.199,106.34 251.5,106.5C 251.167,106.5 250.833,106.5 250.5,106.5 Z"/></g>
<g><path style="opacity:0.985" fill="#269865" d="M 219.5,106.5 C 219.082,107.222 218.416,107.722 217.5,108C 218.5,108.333 219.5,108.667 220.5,109C 205.79,129.465 191.623,150.299 178,171.5C 167.999,194.486 158.332,217.486 149,240.5C 148.667,237.833 148.333,235.167 148,232.5C 148.102,236.956 147.268,240.956 145.5,244.5C 145.33,227.352 145.33,210.352 145.5,193.5C 146.167,200.167 146.833,206.833 147.5,213.5C 148.222,213.918 148.722,214.584 149,215.5C 154.374,202.413 160.041,189.413 166,176.5C 181.299,153.908 196.465,131.408 211.5,109C 210.833,108.667 210.167,108.333 209.5,108C 212.827,107.39 216.161,106.89 219.5,106.5 Z"/></g>
<g><path style="opacity:1" fill="#289e69" d="M 221.5,105.5 C 223.5,105.5 225.5,105.5 227.5,105.5C 227.5,105.833 227.5,106.167 227.5,106.5C 227.5,107.167 227.167,107.5 226.5,107.5C 224.801,107.34 223.134,107.506 221.5,108C 222.167,108.333 222.833,108.667 223.5,109C 209.692,130.462 195.525,151.629 181,172.5C 170.454,198.643 159.621,224.643 148.5,250.5C 148.657,249.127 148.49,247.793 148,246.5C 147.817,249.365 147.317,252.031 146.5,254.5C 146.747,251.061 146.414,247.728 145.5,244.5C 147.268,240.956 148.102,236.956 148,232.5C 148.333,235.167 148.667,237.833 149,240.5C 158.332,217.486 167.999,194.486 178,171.5C 191.623,150.299 205.79,129.465 220.5,109C 219.5,108.667 218.5,108.333 217.5,108C 218.416,107.722 219.082,107.222 219.5,106.5C 220.492,106.672 221.158,106.338 221.5,105.5 Z"/></g>
<g><path style="opacity:1" fill="#2ca66f" d="M 227.5,106.5 C 230.518,106.335 233.518,106.502 236.5,107C 232.148,107.419 231.815,108.086 235.5,109C 222.985,125.301 210.819,142.468 199,160.5C 180.399,203.421 162.899,245.088 146.5,285.5C 146.457,274.86 146.457,264.526 146.5,254.5C 147.317,252.031 147.817,249.365 148,246.5C 148.49,247.793 148.657,249.127 148.5,250.5C 148.334,255.511 148.501,260.511 149,265.5C 163.187,231.948 177.187,198.282 191,164.5C 202.924,145.31 215.424,126.81 228.5,109C 227.584,108.722 226.918,108.222 226.5,107.5C 227.167,107.5 227.5,107.167 227.5,106.5 Z"/></g>
<g><path style="opacity:1" fill="#32b47a" d="M 250.5,106.5 C 250.833,106.5 251.167,106.5 251.5,106.5C 251.082,107.222 250.416,107.722 249.5,108C 250.5,108.333 251.5,108.667 252.5,109C 242.755,121.521 233.255,134.688 224,148.5C 203.687,197.668 182.853,247.334 161.5,297.5C 161.863,298.183 162.196,298.85 162.5,299.5C 160.167,299.5 157.833,299.5 155.5,299.5C 154.5,298.833 153.5,298.167 152.5,297.5C 155.383,294.762 157.549,291.429 159,287.5C 178.391,240.385 198.057,193.385 218,146.5C 219.154,145.257 220.488,144.257 222,143.5C 225.604,135.978 229.937,128.978 235,122.5C 238.391,118.201 241.891,114.034 245.5,110C 244.756,108.961 243.756,108.461 242.5,108.5C 242.611,107.883 242.944,107.383 243.5,107C 245.81,106.503 248.143,106.337 250.5,106.5 Z"/></g>
<g><path style="opacity:1" fill="#34b97e" d="M 251.5,106.5 C 253.199,106.34 254.866,106.506 256.5,107C 252.551,107.807 252.551,108.307 256.5,108.5C 248.645,120.314 240.145,132.314 231,144.5C 209.482,197.182 187.982,248.516 166.5,298.5C 165.833,298.5 165.5,298.833 165.5,299.5C 164.5,299.5 163.5,299.5 162.5,299.5C 162.196,298.85 161.863,298.183 161.5,297.5C 182.853,247.334 203.687,197.668 224,148.5C 233.255,134.688 242.755,121.521 252.5,109C 251.5,108.667 250.5,108.333 249.5,108C 250.416,107.722 251.082,107.222 251.5,106.5 Z"/></g>
<g><path style="opacity:1" fill="#39c586" d="M 267.5,105.5 C 268.791,105.263 269.791,105.596 270.5,106.5C 269.391,107.29 268.058,107.79 266.5,108C 268.167,108.333 269.833,108.667 271.5,109C 264.116,118.023 257.616,127.523 252,137.5C 237.359,173.403 222.692,209.403 208,245.5C 203.094,250.983 198.428,256.649 194,262.5C 193.308,263.437 193.475,264.103 194.5,264.5C 191.984,268.866 188.984,272.866 185.5,276.5C 185.389,275.883 185.056,275.383 184.5,275C 193.636,256.595 201.802,237.761 209,218.5C 221.545,191.287 233.212,163.287 244,134.5C 246.76,129.207 250.593,124.873 255.5,121.5C 258.012,117.171 260.679,113.004 263.5,109C 262.5,108.667 261.5,108.333 260.5,108C 263.004,107.302 265.337,106.469 267.5,105.5 Z"/></g>
<g><path style="opacity:0.998" fill="#3ccb8b" d="M 270.5,106.5 C 272.099,106.232 273.432,106.566 274.5,107.5C 273.227,108.077 273.227,108.743 274.5,109.5C 277.719,110.603 280.385,112.437 282.5,115C 276.926,118.901 271.093,122.401 265,125.5C 250.438,158.833 236.438,192.5 223,226.5C 219.667,230.5 216.333,234.5 213,238.5C 212.308,239.437 212.475,240.103 213.5,240.5C 207.921,249.081 201.588,257.081 194.5,264.5C 193.475,264.103 193.308,263.437 194,262.5C 198.428,256.649 203.094,250.983 208,245.5C 222.692,209.403 237.359,173.403 252,137.5C 257.616,127.523 264.116,118.023 271.5,109C 269.833,108.667 268.167,108.333 266.5,108C 268.058,107.79 269.391,107.29 270.5,106.5 Z"/></g>
<g><path style="opacity:1" fill="#208658" d="M 192.5,105.5 C 195.167,105.5 197.833,105.5 200.5,105.5C 201.5,106.167 202.5,106.833 203.5,107.5C 200.482,107.335 197.482,107.502 194.5,108C 195.5,108.333 196.5,108.667 197.5,109C 191.833,117.333 186.167,125.667 180.5,134C 169.673,139.579 159.006,145.413 148.5,151.5C 147.833,157.654 147.167,163.654 146.5,169.5C 146.5,159.5 146.5,149.5 146.5,139.5C 147.404,138.791 147.737,137.791 147.5,136.5C 160.837,129.77 174.171,122.936 187.5,116C 189.527,113.906 191.194,111.573 192.5,109C 187.981,108.825 183.647,108.325 179.5,107.5C 183.514,107.666 187.514,107.499 191.5,107C 192.056,106.617 192.389,106.117 192.5,105.5 Z"/></g>
<g><path style="opacity:1" fill="#228c5c" d="M 203.5,107.5 C 203.918,108.222 204.584,108.722 205.5,109C 204.809,110.067 204.309,111.234 204,112.5C 191.531,128.966 179.864,145.966 169,163.5C 162.32,167.449 155.486,171.116 148.5,174.5C 147.504,180.463 147.171,186.463 147.5,192.5C 146.508,185.018 146.175,177.352 146.5,169.5C 147.167,163.654 147.833,157.654 148.5,151.5C 159.006,145.413 169.673,139.579 180.5,134C 186.167,125.667 191.833,117.333 197.5,109C 196.5,108.667 195.5,108.333 194.5,108C 197.482,107.502 200.482,107.335 203.5,107.5 Z"/></g>
<g><path style="opacity:1" fill="#2aa16c" d="M 226.5,107.5 C 226.918,108.222 227.584,108.722 228.5,109C 215.424,126.81 202.924,145.31 191,164.5C 177.187,198.282 163.187,231.948 149,265.5C 148.501,260.511 148.334,255.511 148.5,250.5C 159.621,224.643 170.454,198.643 181,172.5C 195.525,151.629 209.692,130.462 223.5,109C 222.833,108.667 222.167,108.333 221.5,108C 223.134,107.506 224.801,107.34 226.5,107.5 Z"/></g>
<g><path style="opacity:1" fill="#30b077" d="M 242.5,108.5 C 243.756,108.461 244.756,108.961 245.5,110C 241.891,114.034 238.391,118.201 235,122.5C 229.937,128.978 225.604,135.978 222,143.5C 220.488,144.257 219.154,145.257 218,146.5C 198.057,193.385 178.391,240.385 159,287.5C 157.549,291.429 155.383,294.762 152.5,297.5C 151.29,297.068 150.29,296.401 149.5,295.5C 169.342,249.594 189.008,203.094 208.5,156C 219.945,140.29 231.278,124.457 242.5,108.5 Z"/></g>
<g><path style="opacity:1" fill="#208356" d="M 179.5,107.5 C 183.647,108.325 187.981,108.825 192.5,109C 191.194,111.573 189.527,113.906 187.5,116C 174.171,122.936 160.837,129.77 147.5,136.5C 147.174,132.116 147.508,127.783 148.5,123.5C 157.878,118.762 167.211,113.929 176.5,109C 172.833,108.667 169.167,108.333 165.5,108C 170.155,107.501 174.821,107.334 179.5,107.5 Z"/></g>
<g><path style="opacity:1" fill="#3ecf8e" d="M 274.5,107.5 C 283.907,110.676 289.907,117.009 292.5,126.5C 292.5,130.5 292.5,134.5 292.5,138.5C 290.466,144.399 287.3,149.732 283,154.5C 260.054,183.42 236.887,212.086 213.5,240.5C 212.475,240.103 212.308,239.437 213,238.5C 216.333,234.5 219.667,230.5 223,226.5C 236.438,192.5 250.438,158.833 265,125.5C 271.093,122.401 276.926,118.901 282.5,115C 280.385,112.437 277.719,110.603 274.5,109.5C 273.227,108.743 273.227,108.077 274.5,107.5 Z"/></g>
<g><path style="opacity:1" fill="#2ba26d" d="M 145.5,132.5 C 146.468,134.607 146.802,136.941 146.5,139.5C 146.5,149.5 146.5,159.5 146.5,169.5C 146.175,177.352 146.508,185.018 147.5,192.5C 147.5,199.5 147.5,206.5 147.5,213.5C 146.833,206.833 146.167,200.167 145.5,193.5C 145.5,173.167 145.5,152.833 145.5,132.5 Z"/></g>
<g><path style="opacity:0.008" fill="#3bcc91" d="M 172.5,293.5 C 173.833,294.167 173.833,294.167 172.5,293.5 Z"/></g>
</svg>
