<?xml version="1.0" encoding="UTF-8"?>
<!DOCTYPE svg PUBLIC "-//W3C//DTD SVG 1.1//EN" "http://www.w3.org/Graphics/SVG/1.1/DTD/svg11.dtd">
<svg xmlns="http://www.w3.org/2000/svg" version="1.1" width="141px" height="141px" style="shape-rendering:geometricPrecision; text-rendering:geometricPrecision; image-rendering:optimizeQuality; fill-rule:evenodd; clip-rule:evenodd" xmlns:xlink="http://www.w3.org/1999/xlink">
<g><path style="opacity:1" fill="#0c2a56" d="M -0.5,-0.5 C 46.5,-0.5 93.5,-0.5 140.5,-0.5C 140.5,46.5 140.5,93.5 140.5,140.5C 93.5,140.5 46.5,140.5 -0.5,140.5C -0.5,93.5 -0.5,46.5 -0.5,-0.5 Z"/></g>
<g><path style="opacity:1" fill="#f6f6f8" d="M 65.5,27.5 C 65.8195,32.3633 65.4861,37.03 64.5,41.5C 60.3763,28.7714 52.043,24.6048 39.5,29C 32.6742,36.5943 33.0076,43.9276 40.5,51C 46.0813,53.8598 51.7479,56.5265 57.5,59C 69.6969,67.9293 71.6969,78.7627 63.5,91.5C 58.1013,96.3578 51.7679,99.1911 44.5,100C 36.4037,100.827 28.4037,100.327 20.5,98.5C 20.3341,93.4889 20.5007,88.4889 21,83.5C 23.0743,88.4749 26.2409,92.6416 30.5,96C 36.8611,99.2719 43.1944,99.2719 49.5,96C 55.3116,87.7818 54.645,80.1151 47.5,73C 38.235,69.4574 30.0683,64.2908 23,57.5C 17.0258,40.9475 22.5258,30.4475 39.5,26C 48.3954,25.0902 57.0621,25.5902 65.5,27.5 Z"/></g>
<g><path style="opacity:1" fill="#000046" d="M 65.5,27.5 C 66.4861,31.97 66.8195,36.6367 66.5,41.5C 84.008,41.17 101.341,41.5033 118.5,42.5C 98.1667,42.5 77.8333,42.5 57.5,42.5C 59.6074,41.5318 61.9407,41.1984 64.5,41.5C 65.4861,37.03 65.8195,32.3633 65.5,27.5 Z"/></g>
<g><path style="opacity:1" fill="#b0b6c1" d="M 57.5,43.5 C 57.5,43.1667 57.5,42.8333 57.5,42.5C 77.8333,42.5 98.1667,42.5 118.5,42.5C 119.65,47.3158 119.816,52.3158 119,57.5C 118.283,56.9558 117.783,56.2891 117.5,55.5C 118.483,51.7016 118.817,47.7016 118.5,43.5C 113.305,43.1795 108.305,43.5128 103.5,44.5C 101.5,44.5 99.5,44.5 97.5,44.5C 97.5,64.8333 97.5,85.1667 97.5,105.5C 96.5028,85.0067 96.1695,64.3401 96.5,43.5C 90.642,43.1778 84.9753,43.5111 79.5,44.5C 77.5,44.5 75.5,44.5 73.5,44.5C 68.3595,43.5119 63.0262,43.1786 57.5,43.5 Z"/></g>
<g><path style="opacity:1" fill="#f5f5f7" d="M 57.5,43.5 C 63.0262,43.1786 68.3595,43.5119 73.5,44.5C 66.3949,46.4319 61.2282,50.7653 58,57.5C 57.5008,52.8452 57.3342,48.1785 57.5,43.5 Z"/></g>
<g><path style="opacity:1" fill="#fcfcfd" d="M 97.5,105.5 C 97.4113,109.433 99.078,112.266 102.5,114C 92.8333,114.667 83.1667,114.667 73.5,114C 77.4205,111.666 79.4205,108.166 79.5,103.5C 79.5,83.8333 79.5,64.1667 79.5,44.5C 84.9753,43.5111 90.642,43.1778 96.5,43.5C 96.1695,64.3401 96.5028,85.0067 97.5,105.5 Z"/></g>
<g><path style="opacity:1" fill="#f8f8f9" d="M 103.5,44.5 C 108.305,43.5128 113.305,43.1795 118.5,43.5C 118.817,47.7016 118.483,51.7016 117.5,55.5C 114.373,49.9294 109.707,46.2628 103.5,44.5 Z"/></g>
<g><path style="opacity:1" fill="#000e4a" d="M 73.5,44.5 C 75.5,44.5 77.5,44.5 79.5,44.5C 79.5,64.1667 79.5,83.8333 79.5,103.5C 78.503,84.3405 78.1697,65.0072 78.5,45.5C 76.5853,45.7845 74.9187,45.4511 73.5,44.5 Z"/></g>
</svg>
